<mxfile host="app.diagrams.net" modified="2023-12-19T16:33:40.000Z" agent="Mozilla/5.0 (Windows NT 10.0; Win64; x64) AppleWebKit/537.36 (KHTML, like Gecko) Chrome/120.0.0.0 Safari/537.36" etag="KX0B4KeAWzO90tCP3PBZ" version="22.1.11" type="device">
  <diagram name="Pagina-1" id="4nSzD-nR4JrMxY3UGBOF">
    <mxGraphModel dx="1740" dy="1623" grid="1" gridSize="10" guides="1" tooltips="1" connect="1" arrows="1" fold="1" page="1" pageScale="1" pageWidth="827" pageHeight="1169" math="0" shadow="0">
      <root>
        <mxCell id="0" />
        <mxCell id="1" parent="0" />
        <mxCell id="pwz00yW92rZuRpVPElPb-1" value="CENTRAL&lt;br&gt;WAREHOUSE" style="rounded=1;whiteSpace=wrap;html=1;" vertex="1" parent="1">
          <mxGeometry x="-500" y="190" width="120" height="60" as="geometry" />
        </mxCell>
        <mxCell id="pwz00yW92rZuRpVPElPb-2" value="L1" style="ellipse;whiteSpace=wrap;html=1;aspect=fixed;fillColor=#dae8fc;strokeColor=#6c8ebf;" vertex="1" parent="1">
          <mxGeometry x="-130" y="190" width="80" height="80" as="geometry" />
        </mxCell>
        <mxCell id="pwz00yW92rZuRpVPElPb-3" value="L9" style="ellipse;whiteSpace=wrap;html=1;aspect=fixed;fillColor=#dae8fc;strokeColor=#6c8ebf;" vertex="1" parent="1">
          <mxGeometry x="-320" y="30" width="80" height="80" as="geometry" />
        </mxCell>
        <mxCell id="pwz00yW92rZuRpVPElPb-4" value="L8" style="ellipse;whiteSpace=wrap;html=1;aspect=fixed;fillColor=#dae8fc;strokeColor=#6c8ebf;" vertex="1" parent="1">
          <mxGeometry x="-460" y="40" width="80" height="80" as="geometry" />
        </mxCell>
        <mxCell id="pwz00yW92rZuRpVPElPb-5" value="L11" style="ellipse;whiteSpace=wrap;html=1;aspect=fixed;fillColor=#dae8fc;strokeColor=#6c8ebf;" vertex="1" parent="1">
          <mxGeometry x="-220" y="90" width="80" height="80" as="geometry" />
        </mxCell>
        <mxCell id="pwz00yW92rZuRpVPElPb-7" value="L7" style="ellipse;whiteSpace=wrap;html=1;aspect=fixed;fillColor=#dae8fc;strokeColor=#6c8ebf;" vertex="1" parent="1">
          <mxGeometry x="-590" y="20" width="80" height="80" as="geometry" />
        </mxCell>
        <mxCell id="pwz00yW92rZuRpVPElPb-8" value="L6" style="ellipse;whiteSpace=wrap;html=1;aspect=fixed;fillColor=#dae8fc;strokeColor=#6c8ebf;" vertex="1" parent="1">
          <mxGeometry x="-280" y="340" width="80" height="80" as="geometry" />
        </mxCell>
        <mxCell id="pwz00yW92rZuRpVPElPb-9" value="L5" style="ellipse;whiteSpace=wrap;html=1;aspect=fixed;fillColor=#dae8fc;strokeColor=#6c8ebf;" vertex="1" parent="1">
          <mxGeometry x="-453" y="430" width="80" height="80" as="geometry" />
        </mxCell>
        <mxCell id="pwz00yW92rZuRpVPElPb-10" value="L4" style="ellipse;whiteSpace=wrap;html=1;aspect=fixed;fillColor=#dae8fc;strokeColor=#6c8ebf;" vertex="1" parent="1">
          <mxGeometry x="-600" y="430" width="80" height="80" as="geometry" />
        </mxCell>
        <mxCell id="pwz00yW92rZuRpVPElPb-11" value="L3" style="ellipse;whiteSpace=wrap;html=1;aspect=fixed;fillColor=#dae8fc;strokeColor=#6c8ebf;" vertex="1" parent="1">
          <mxGeometry x="-670" y="310" width="80" height="80" as="geometry" />
        </mxCell>
        <mxCell id="pwz00yW92rZuRpVPElPb-12" value="L2" style="ellipse;whiteSpace=wrap;html=1;aspect=fixed;fillColor=#dae8fc;strokeColor=#6c8ebf;" vertex="1" parent="1">
          <mxGeometry x="-690" y="140" width="80" height="80" as="geometry" />
        </mxCell>
        <mxCell id="pwz00yW92rZuRpVPElPb-16" value="" style="shape=flexArrow;endArrow=classic;startArrow=classic;html=1;rounded=0;entryX=0;entryY=0.5;entryDx=0;entryDy=0;exitX=1;exitY=0.5;exitDx=0;exitDy=0;" edge="1" parent="1" source="pwz00yW92rZuRpVPElPb-1" target="pwz00yW92rZuRpVPElPb-2">
          <mxGeometry width="100" height="100" relative="1" as="geometry">
            <mxPoint x="-490" y="270" as="sourcePoint" />
            <mxPoint x="-390" y="170" as="targetPoint" />
          </mxGeometry>
        </mxCell>
        <mxCell id="pwz00yW92rZuRpVPElPb-17" value="" style="shape=flexArrow;endArrow=classic;startArrow=classic;html=1;rounded=0;entryX=1;entryY=0.75;entryDx=0;entryDy=0;exitX=0;exitY=0.5;exitDx=0;exitDy=0;entryPerimeter=0;" edge="1" parent="1" source="pwz00yW92rZuRpVPElPb-1" target="pwz00yW92rZuRpVPElPb-12">
          <mxGeometry width="100" height="100" relative="1" as="geometry">
            <mxPoint x="-430" y="200" as="sourcePoint" />
            <mxPoint x="-440" y="150" as="targetPoint" />
          </mxGeometry>
        </mxCell>
        <mxCell id="pwz00yW92rZuRpVPElPb-18" value="" style="shape=flexArrow;endArrow=classic;startArrow=classic;html=1;rounded=0;entryX=1;entryY=0.5;entryDx=0;entryDy=0;exitX=0;exitY=1;exitDx=0;exitDy=0;" edge="1" parent="1" source="pwz00yW92rZuRpVPElPb-1" target="pwz00yW92rZuRpVPElPb-11">
          <mxGeometry width="100" height="100" relative="1" as="geometry">
            <mxPoint x="-420" y="210" as="sourcePoint" />
            <mxPoint x="-430" y="160" as="targetPoint" />
          </mxGeometry>
        </mxCell>
        <mxCell id="pwz00yW92rZuRpVPElPb-19" value="" style="shape=flexArrow;endArrow=classic;startArrow=classic;html=1;rounded=0;entryX=1;entryY=1;entryDx=0;entryDy=0;exitX=0;exitY=0;exitDx=0;exitDy=0;" edge="1" parent="1" source="pwz00yW92rZuRpVPElPb-10" target="pwz00yW92rZuRpVPElPb-11">
          <mxGeometry width="100" height="100" relative="1" as="geometry">
            <mxPoint x="-410" y="220" as="sourcePoint" />
            <mxPoint x="-420" y="170" as="targetPoint" />
          </mxGeometry>
        </mxCell>
        <mxCell id="pwz00yW92rZuRpVPElPb-20" value="" style="shape=flexArrow;endArrow=classic;startArrow=classic;html=1;rounded=0;entryX=0;entryY=0.5;entryDx=0;entryDy=0;exitX=1.058;exitY=0.66;exitDx=0;exitDy=0;exitPerimeter=0;" edge="1" parent="1" source="pwz00yW92rZuRpVPElPb-10" target="pwz00yW92rZuRpVPElPb-9">
          <mxGeometry width="100" height="100" relative="1" as="geometry">
            <mxPoint x="-578" y="452" as="sourcePoint" />
            <mxPoint x="-592" y="388" as="targetPoint" />
          </mxGeometry>
        </mxCell>
        <mxCell id="pwz00yW92rZuRpVPElPb-21" value="" style="shape=flexArrow;endArrow=classic;startArrow=classic;html=1;rounded=0;entryX=0.048;entryY=0.665;entryDx=0;entryDy=0;entryPerimeter=0;" edge="1" parent="1" source="pwz00yW92rZuRpVPElPb-9" target="pwz00yW92rZuRpVPElPb-8">
          <mxGeometry width="100" height="100" relative="1" as="geometry">
            <mxPoint x="-505" y="493" as="sourcePoint" />
            <mxPoint x="-443" y="480" as="targetPoint" />
          </mxGeometry>
        </mxCell>
        <mxCell id="pwz00yW92rZuRpVPElPb-23" value="" style="shape=flexArrow;endArrow=classic;startArrow=classic;html=1;rounded=0;entryX=0.5;entryY=1;entryDx=0;entryDy=0;exitX=1;exitY=0;exitDx=0;exitDy=0;" edge="1" parent="1" source="pwz00yW92rZuRpVPElPb-8" target="pwz00yW92rZuRpVPElPb-2">
          <mxGeometry width="100" height="100" relative="1" as="geometry">
            <mxPoint x="-495" y="503" as="sourcePoint" />
            <mxPoint x="-433" y="490" as="targetPoint" />
          </mxGeometry>
        </mxCell>
        <mxCell id="pwz00yW92rZuRpVPElPb-24" value="" style="shape=flexArrow;endArrow=classic;startArrow=classic;html=1;rounded=0;entryX=0;entryY=1;entryDx=0;entryDy=0;exitX=0.75;exitY=0;exitDx=0;exitDy=0;exitPerimeter=0;" edge="1" parent="1" source="pwz00yW92rZuRpVPElPb-12" target="pwz00yW92rZuRpVPElPb-7">
          <mxGeometry width="100" height="100" relative="1" as="geometry">
            <mxPoint x="-380" y="240" as="sourcePoint" />
            <mxPoint x="-280" y="140" as="targetPoint" />
          </mxGeometry>
        </mxCell>
        <mxCell id="pwz00yW92rZuRpVPElPb-25" value="" style="shape=flexArrow;endArrow=classic;startArrow=classic;html=1;rounded=0;entryX=0;entryY=0.5;entryDx=0;entryDy=0;exitX=1;exitY=0.75;exitDx=0;exitDy=0;exitPerimeter=0;" edge="1" parent="1" source="pwz00yW92rZuRpVPElPb-7" target="pwz00yW92rZuRpVPElPb-4">
          <mxGeometry width="100" height="100" relative="1" as="geometry">
            <mxPoint x="-620" y="150" as="sourcePoint" />
            <mxPoint x="-568" y="98" as="targetPoint" />
          </mxGeometry>
        </mxCell>
        <mxCell id="pwz00yW92rZuRpVPElPb-26" value="" style="shape=flexArrow;endArrow=classic;startArrow=classic;html=1;rounded=0;entryX=0.5;entryY=0;entryDx=0;entryDy=0;" edge="1" parent="1" source="pwz00yW92rZuRpVPElPb-4" target="pwz00yW92rZuRpVPElPb-1">
          <mxGeometry width="100" height="100" relative="1" as="geometry">
            <mxPoint x="-610" y="160" as="sourcePoint" />
            <mxPoint x="-440" y="180" as="targetPoint" />
          </mxGeometry>
        </mxCell>
        <mxCell id="pwz00yW92rZuRpVPElPb-27" value="" style="shape=flexArrow;endArrow=classic;startArrow=classic;html=1;rounded=0;exitX=-0.032;exitY=0.63;exitDx=0;exitDy=0;exitPerimeter=0;" edge="1" parent="1" source="pwz00yW92rZuRpVPElPb-5">
          <mxGeometry width="100" height="100" relative="1" as="geometry">
            <mxPoint x="-267" y="129" as="sourcePoint" />
            <mxPoint x="-370" y="210" as="targetPoint" />
          </mxGeometry>
        </mxCell>
        <mxCell id="pwz00yW92rZuRpVPElPb-28" value="" style="shape=flexArrow;endArrow=classic;startArrow=classic;html=1;rounded=0;entryX=0.5;entryY=0;entryDx=0;entryDy=0;" edge="1" parent="1" source="pwz00yW92rZuRpVPElPb-3">
          <mxGeometry width="100" height="100" relative="1" as="geometry">
            <mxPoint x="-367" y="130" as="sourcePoint" />
            <mxPoint x="-380" y="201" as="targetPoint" />
          </mxGeometry>
        </mxCell>
        <mxCell id="pwz00yW92rZuRpVPElPb-29" value="L10" style="ellipse;whiteSpace=wrap;html=1;aspect=fixed;fillColor=#dae8fc;strokeColor=#6c8ebf;" vertex="1" parent="1">
          <mxGeometry x="-190" y="-70" width="80" height="80" as="geometry" />
        </mxCell>
        <mxCell id="pwz00yW92rZuRpVPElPb-30" value="L12" style="ellipse;whiteSpace=wrap;html=1;aspect=fixed;fillColor=#dae8fc;strokeColor=#6c8ebf;" vertex="1" parent="1">
          <mxGeometry x="-90" width="80" height="80" as="geometry" />
        </mxCell>
        <mxCell id="pwz00yW92rZuRpVPElPb-31" value="" style="shape=flexArrow;endArrow=classic;startArrow=classic;html=1;rounded=0;entryX=0.998;entryY=0.318;entryDx=0;entryDy=0;entryPerimeter=0;" edge="1" parent="1" source="pwz00yW92rZuRpVPElPb-30" target="pwz00yW92rZuRpVPElPb-5">
          <mxGeometry width="100" height="100" relative="1" as="geometry">
            <mxPoint x="-213" y="150" as="sourcePoint" />
            <mxPoint x="-360" y="220" as="targetPoint" />
          </mxGeometry>
        </mxCell>
        <mxCell id="pwz00yW92rZuRpVPElPb-32" value="" style="shape=flexArrow;endArrow=classic;startArrow=classic;html=1;rounded=0;exitX=0;exitY=1;exitDx=0;exitDy=0;entryX=1;entryY=0;entryDx=0;entryDy=0;" edge="1" parent="1" source="pwz00yW92rZuRpVPElPb-29" target="pwz00yW92rZuRpVPElPb-3">
          <mxGeometry width="100" height="100" relative="1" as="geometry">
            <mxPoint x="-203" y="160" as="sourcePoint" />
            <mxPoint x="-350" y="230" as="targetPoint" />
          </mxGeometry>
        </mxCell>
        <mxCell id="pwz00yW92rZuRpVPElPb-33" value="L13" style="ellipse;whiteSpace=wrap;html=1;aspect=fixed;fillColor=#dae8fc;strokeColor=#6c8ebf;" vertex="1" parent="1">
          <mxGeometry x="-460" y="290" width="80" height="80" as="geometry" />
        </mxCell>
        <mxCell id="pwz00yW92rZuRpVPElPb-35" value="" style="shape=flexArrow;endArrow=classic;startArrow=classic;html=1;rounded=0;entryX=0.5;entryY=0;entryDx=0;entryDy=0;exitX=0.5;exitY=1;exitDx=0;exitDy=0;" edge="1" parent="1" source="pwz00yW92rZuRpVPElPb-33" target="pwz00yW92rZuRpVPElPb-9">
          <mxGeometry width="100" height="100" relative="1" as="geometry">
            <mxPoint x="-470" y="360" as="sourcePoint" />
            <mxPoint x="-370" y="260" as="targetPoint" />
          </mxGeometry>
        </mxCell>
        <mxCell id="pwz00yW92rZuRpVPElPb-36" value="L14" style="ellipse;whiteSpace=wrap;html=1;aspect=fixed;fillColor=#dae8fc;strokeColor=#6c8ebf;" vertex="1" parent="1">
          <mxGeometry x="-130" y="430" width="80" height="80" as="geometry" />
        </mxCell>
        <mxCell id="pwz00yW92rZuRpVPElPb-37" value="" style="shape=flexArrow;endArrow=classic;startArrow=classic;html=1;rounded=0;" edge="1" parent="1" source="pwz00yW92rZuRpVPElPb-36">
          <mxGeometry width="100" height="100" relative="1" as="geometry">
            <mxPoint x="-270" y="510" as="sourcePoint" />
            <mxPoint x="-200" y="410" as="targetPoint" />
          </mxGeometry>
        </mxCell>
        <mxCell id="pwz00yW92rZuRpVPElPb-39" value="WS11" style="rhombus;whiteSpace=wrap;html=1;fillColor=#f8cecc;strokeColor=#b85450;" vertex="1" parent="1">
          <mxGeometry x="-560" width="40" height="40" as="geometry" />
        </mxCell>
        <mxCell id="pwz00yW92rZuRpVPElPb-40" value="WS2" style="rhombus;whiteSpace=wrap;html=1;fillColor=#f8cecc;strokeColor=#b85450;" vertex="1" parent="1">
          <mxGeometry x="-710" y="130" width="40" height="40" as="geometry" />
        </mxCell>
        <mxCell id="pwz00yW92rZuRpVPElPb-41" value="WS3" style="rhombus;whiteSpace=wrap;html=1;fillColor=#f8cecc;strokeColor=#b85450;" vertex="1" parent="1">
          <mxGeometry x="-680" y="300" width="40" height="40" as="geometry" />
        </mxCell>
        <mxCell id="pwz00yW92rZuRpVPElPb-42" value="WS4" style="rhombus;whiteSpace=wrap;html=1;fillColor=#f8cecc;strokeColor=#b85450;" vertex="1" parent="1">
          <mxGeometry x="-620" y="460" width="40" height="40" as="geometry" />
        </mxCell>
        <mxCell id="pwz00yW92rZuRpVPElPb-43" value="WS5" style="rhombus;whiteSpace=wrap;html=1;fillColor=#f8cecc;strokeColor=#b85450;" vertex="1" parent="1">
          <mxGeometry x="-590" y="490" width="40" height="40" as="geometry" />
        </mxCell>
        <mxCell id="pwz00yW92rZuRpVPElPb-44" value="WS6" style="rhombus;whiteSpace=wrap;html=1;fillColor=#f8cecc;strokeColor=#b85450;" vertex="1" parent="1">
          <mxGeometry x="-440" y="490" width="40" height="40" as="geometry" />
        </mxCell>
        <mxCell id="pwz00yW92rZuRpVPElPb-45" value="WS7" style="rhombus;whiteSpace=wrap;html=1;fillColor=#f8cecc;strokeColor=#b85450;" vertex="1" parent="1">
          <mxGeometry x="-400" y="475" width="40" height="40" as="geometry" />
        </mxCell>
        <mxCell id="pwz00yW92rZuRpVPElPb-46" value="WS10" style="rhombus;whiteSpace=wrap;html=1;fillColor=#f8cecc;strokeColor=#b85450;" vertex="1" parent="1">
          <mxGeometry x="-290" y="330" width="40" height="40" as="geometry" />
        </mxCell>
        <mxCell id="pwz00yW92rZuRpVPElPb-47" value="WS9" style="rhombus;whiteSpace=wrap;html=1;fillColor=#f8cecc;strokeColor=#b85450;" vertex="1" parent="1">
          <mxGeometry x="-220" y="360" width="40" height="40" as="geometry" />
        </mxCell>
        <mxCell id="pwz00yW92rZuRpVPElPb-49" value="WS8" style="rhombus;whiteSpace=wrap;html=1;fillColor=#f8cecc;strokeColor=#b85450;" vertex="1" parent="1">
          <mxGeometry x="-260" y="400" width="40" height="40" as="geometry" />
        </mxCell>
        <mxCell id="pwz00yW92rZuRpVPElPb-50" value="ws1" style="rhombus;whiteSpace=wrap;html=1;fillColor=#f8cecc;strokeColor=#b85450;" vertex="1" parent="1">
          <mxGeometry x="-80" y="180" width="40" height="40" as="geometry" />
        </mxCell>
        <mxCell id="pwz00yW92rZuRpVPElPb-51" value="WS12" style="rhombus;whiteSpace=wrap;html=1;fillColor=#f8cecc;strokeColor=#b85450;" vertex="1" parent="1">
          <mxGeometry x="-413" y="20" width="40" height="40" as="geometry" />
        </mxCell>
        <mxCell id="pwz00yW92rZuRpVPElPb-52" value="WS14" style="rhombus;whiteSpace=wrap;html=1;fillColor=#f8cecc;strokeColor=#b85450;" vertex="1" parent="1">
          <mxGeometry x="-150" y="-90" width="40" height="40" as="geometry" />
        </mxCell>
        <mxCell id="pwz00yW92rZuRpVPElPb-53" value="WS13" style="rhombus;whiteSpace=wrap;html=1;fillColor=#f8cecc;strokeColor=#b85450;" vertex="1" parent="1">
          <mxGeometry x="-190" y="-90" width="40" height="40" as="geometry" />
        </mxCell>
        <mxCell id="pwz00yW92rZuRpVPElPb-54" value="WS15" style="rhombus;whiteSpace=wrap;html=1;fillColor=#f8cecc;strokeColor=#b85450;" vertex="1" parent="1">
          <mxGeometry x="-70" y="-20" width="40" height="40" as="geometry" />
        </mxCell>
      </root>
    </mxGraphModel>
  </diagram>
</mxfile>
